<svg width="24" height="24" viewBox="0 0 24 24" fill="none" xmlns="http://www.w3.org/2000/svg">
  <path d="M17.05 12.536c-.02-2.075 1.73-3.084 1.807-3.131-0.984-1.406-2.515-1.6-3.063-1.624-1.303-0.128-2.544.748-3.205.748-0.66 0-1.68-0.73-2.763-0.71-1.422.02-2.73.807-3.46 2.05-1.474 2.505-0.377 6.218 1.06 8.252.703 0.992 1.54 2.106 2.64 2.067 1.06-0.041 1.46-0.67 2.74-0.67 1.28 0 1.64.67 2.76.65 1.14-0.02 1.86-1.016 2.56-2.012.807-1.15 1.14-2.263 1.16-2.321-0.025-0.01-2.224-0.835-2.246-3.31zM14.89 6.206c0.584-0.692 0.978-1.647 0.872-2.602-0.843.033-1.86.549-2.463 1.241-0.541.613-1.014 1.59-0.887 2.526.94.071 1.9-0.473 2.478-1.165z" fill="currentColor"/>
</svg>