<svg width="24" height="24" viewBox="0 0 24 24" fill="none" xmlns="http://www.w3.org/2000/svg">
<path d="M21 16.5C21 16.8978 20.842 17.2794 20.5607 17.5607C20.2794 17.842 19.8978 18 19.5 18H4.5C4.10218 18 3.72064 17.842 3.43934 17.5607C3.15804 17.2794 3 16.8978 3 16.5V4.5C3 4.10218 3.15804 3.72064 3.43934 3.43934C3.72064 3.15804 4.10218 3 4.5 3H19.5C19.8978 3 20.2794 3.15804 20.5607 3.43934C20.842 3.72064 21 4.10218 21 4.5V16.5ZM4.5 4.5V16.5H19.5V4.5H4.5ZM3 19.5H21V21H3V19.5ZM12 6H18V7.5H12V6ZM12 9H18V10.5H12V9ZM12 12H18V13.5H12V12ZM6 6H10.5V13.5H6V6Z" fill="currentColor"/>
</svg>